<svg width="259" height="54" viewBox="0 0 259 54" fill="none" xmlns="http://www.w3.org/2000/svg">
<path d="M228.811 14.8548L211.042 17.0322L211.392 19.8678L229.162 17.6903L228.811 14.8548Z" fill="white"/>
<path d="M14.3652 4.4375H11.4941V43.9992H14.3652V4.4375Z" fill="white"/>
<path d="M24.5987 33.9807C23.5278 33.9807 22.5496 33.7638 21.7293 33.2464C18.2285 31.0384 19.7404 24.305 20.9605 21.8698L21.3552 21.0826L42.1493 21.0228C45.1834 18.0105 47.1346 15.0391 47.0968 13.048C47.0711 11.704 46.2233 10.3823 44.5759 9.11691C39.0226 4.85455 25.1169 2.21277 13.2672 5.07142C9.17946 6.05846 5.24614 7.77297 1.57539 10.1688L0 7.7798C3.94705 5.20462 8.1824 3.35863 12.5911 2.29474C24.252 -0.519508 39.3864 1.52629 46.3297 6.85424C48.6671 8.64901 49.925 10.7716 49.9679 12.9933C50.0142 15.4626 48.4268 18.2837 46.0706 21.0109L66.1714 20.9528L66.18 23.8098L43.2922 23.8764C40.2908 26.6718 36.7556 29.1821 33.7507 30.8625C30.9689 32.4182 27.4646 33.9807 24.6004 33.9807H24.5987ZM23.1915 23.9327C22.3111 26.3183 22.0091 30.0394 23.2653 30.8317C24.2795 31.4721 27.2655 31.2125 32.34 28.371C34.6808 27.0612 36.9323 25.514 38.9402 23.8866L23.1898 23.931L23.1915 23.9327Z" fill="white"/>
<path d="M205.749 44.6137L203.093 43.543C204.072 40.6519 204.884 37.1904 205.668 33.8434C205.744 33.5172 205.821 33.1944 205.897 32.8717C199.739 41.253 193.352 45.044 186.841 44.1526C182.966 43.6232 179.309 40.3598 178.144 36.3929C177.785 35.1736 177.696 33.857 177.838 32.5438L175.372 32.607H169.611C169.628 32.6685 169.644 32.73 169.658 32.7931C170.335 35.6774 168.853 40.1754 162.448 43.3585C157.557 45.7886 150.482 44.4617 146.995 40.4623C145.476 38.7188 144.681 36.2017 144.654 33.1022L131.371 44.3643L129.509 42.1888L145.004 29.0516C146.389 20.8753 151.666 11.6197 157.792 6.88256C165.209 1.14818 173.914 0.893738 178.439 1.25064L181.895 1.52387L147.686 30.5305C147.661 30.7354 147.638 30.9386 147.618 31.1401C147.29 34.4752 147.824 37.0504 149.164 38.589C151.812 41.6287 157.42 42.6618 161.165 40.8021C165.688 38.5548 167.104 35.715 166.92 33.8058C166.845 33.0151 166.505 32.6787 166.416 32.6531C165.709 32.6531 165.427 32.6446 165.112 32.6377C164.497 32.6241 163.732 32.607 159.019 32.607V29.7501H175.333L178.516 29.6681C179.357 27.4003 180.86 25.3938 182.798 24.2462C186.314 22.1646 190.953 22.0536 194.34 23.973C196.923 25.4348 198.406 27.8597 198.406 30.6261V32.0179L180.742 32.4687C180.575 33.5445 180.612 34.6255 180.895 35.5903C181.73 38.4336 184.512 40.9507 187.227 41.3213C194.527 42.3117 201.946 35.7952 209.269 21.934L211.81 23.2626C210.666 25.4279 209.749 29.0345 208.816 32.9776C209.595 31.678 210.4 30.3836 211.21 29.1455C216.531 20.9999 218.644 20.3083 220.135 20.7762C221.923 21.3363 222.636 23.8808 222.551 29.5042C222.775 28.7972 222.984 28.1465 223.186 27.542C224.782 22.7503 225.652 21.1041 227.346 21.3961C229.256 21.7291 229.261 23.9098 229.27 27.5215C229.279 31.4663 229.291 37.4278 232.127 39.366C234.729 41.1437 241.2 40.6689 257.241 28.3054L259 30.5646C244.825 41.4886 235.501 45.1413 230.5 41.7209C226.421 38.9322 226.408 32.3406 226.397 27.5267C226.397 27.3593 226.397 27.1851 226.397 27.0109C225.007 30.9488 223.001 37.9725 221.172 44.3883L218.371 43.7854C219.866 33.9117 219.991 25.6892 219.21 23.6878C216.825 25.1957 209.983 35.7628 205.744 44.612L205.749 44.6137ZM188.911 25.4501C187.309 25.4501 185.676 25.8685 184.272 26.7001C183.217 27.3252 182.328 28.3651 181.693 29.5861L195.329 29.2378C194.855 27.7589 193.688 26.8863 192.926 26.4542C191.739 25.7831 190.338 25.4484 188.911 25.4484V25.4501ZM174.523 4.02391C170.253 4.18614 164.554 5.27222 159.558 9.13669C154.911 12.7314 150.686 19.4442 148.707 25.9129L174.524 4.02391H174.523Z" fill="white"/>
<path d="M97.5864 46.4293L96.7833 46.1971C90.5024 44.3835 86.4523 39.3766 86.7029 33.7396C87.0478 26.0021 91.9061 22.6653 93.9792 21.5895C96.9326 20.056 100.14 19.8869 102.15 21.1557C102.623 21.4545 102.924 21.96 103.069 22.7011C103.351 24.1288 103.167 27.469 100.693 30.9339L98.3518 29.2791C100.193 26.7022 100.391 24.2705 100.279 23.403C99.2185 22.9812 97.3033 23.0871 95.304 24.1236C93.672 24.9707 89.8468 27.6141 89.5688 33.8659C89.3852 37.9985 92.1979 41.5932 96.7953 43.2018L118.042 22.5662C118.092 22.5184 118.142 22.4689 118.193 22.4211L120.196 24.4686L120.047 24.6137C114.507 30.022 112.774 34.8427 114.895 38.948C116.699 42.4385 120.78 42.488 123.997 41.3746C125.312 40.9186 126.23 39.7967 126.391 38.4459L127.925 25.6725L130.776 26.0123L129.242 38.7858C128.948 41.2294 127.301 43.2547 124.943 44.0727C119.469 45.9734 114.521 44.474 112.342 40.2561C111.387 38.4084 110.775 35.9664 111.43 32.9848L97.5864 46.4327V46.4293Z" fill="white"/>
<path d="M80.9763 44.9265L75.7199 35.9014C73.7343 38.8711 70.9645 41.7382 67.7176 43.0822C61.7061 45.572 56.5029 44.7386 53.8035 40.8485C51.6446 37.7389 51.902 31.6168 54.3801 27.2025C56.7912 22.9077 60.8996 20.6843 65.993 20.9558L65.8419 23.8094C60.812 23.5532 58.195 26.2667 56.8873 28.596C54.6443 32.5919 54.955 37.4793 56.1665 39.2245C58.866 43.1129 64.373 41.3728 66.6159 40.4438C69.5607 39.2245 72.2962 36.2071 74.105 33.1213L69.4355 25.1021L71.1996 24.5949C73.5782 23.9118 76.916 23.227 78.4364 25.1601C79.1709 26.0925 79.2808 27.5662 78.7625 29.5386C78.4948 30.5581 78.0246 31.7705 77.3828 33.053L81.0278 39.3133L88.6627 26.7141L91.1219 28.1895L80.978 44.9282L80.9763 44.9265ZM73.8012 26.9054L75.6032 29.9997C76.3325 28.0376 76.245 27.0761 76.154 26.89C76.154 26.89 75.9824 26.75 75.2668 26.75C74.9167 26.75 74.4414 26.7892 73.8012 26.9054Z" fill="white"/>
<path d="M129.429 53.6172C128.553 53.6172 127.857 53.4772 127.412 53.3542C126.001 52.9631 124.98 52.1964 124.68 51.3033C124.248 50.0174 125.239 46.8223 127.935 44.4401L125.835 42.1399L127.961 40.2188L136.974 50.0891L135.843 51.0454C133.398 53.1134 131.091 53.6172 129.43 53.6172H129.429ZM127.47 50.3111C128.107 50.6766 130.172 51.3357 132.778 49.7442L129.868 46.5559C128.299 47.9357 127.616 49.5956 127.47 50.3111Z" fill="white"/>
<path d="M119.311 0C133.436 0 144.887 11.3953 144.887 25.4512C130.762 25.4512 119.311 14.0559 119.311 0Z" fill="white"/>
</svg>
