<?xml version="1.0" encoding="UTF-8"?>
<svg id="_Слой_1" data-name="Слой 1" xmlns="http://www.w3.org/2000/svg" viewBox="0 0 1674.8 573.39">
  <defs>
    <style>
      .cls-1 {
        fill: #80ba2b;
      }

      .cls-1, .cls-2 {
        stroke-width: 0px;
      }

      .cls-2 {
        fill: #f8b300;
      }
    </style>
  </defs>
  <path class="cls-1" d="m773.04,105.31h0c82.31,0,149.04,66.73,149.04,149.04h0s0,0,0,0c-82.31,0-149.04-66.73-149.04-149.04h0Z"/>
  <g>
    <rect class="cls-2" x="1308.2" y="198.55" width="104.33" height="16.73" transform="translate(-15.09 167.87) rotate(-7.02)"/>
    <g>
      <rect class="cls-2" x="144.78" y="131.3" width="16.73" height="231.67"/>
      <path class="cls-2" d="m221.14,304.3c-6.24,0-11.94-1.27-16.72-4.3-20.4-12.93-11.59-52.36-4.48-66.62l2.3-4.61,121.17-.35c17.68-17.64,29.05-35.04,28.83-46.7-.15-7.87-5.09-15.61-14.69-23.02-32.36-24.96-113.39-40.43-182.44-23.69-23.82,5.78-46.74,15.82-68.13,29.85l-9.18-13.99c23-15.08,47.68-25.89,73.37-32.12,67.95-16.48,156.14-4.5,196.6,26.7,13.62,10.51,20.95,22.94,21.2,35.95.27,14.46-8.98,30.98-22.71,46.95l117.13-.34.05,16.73-133.37.39c-17.49,16.37-38.09,31.07-55.6,40.91-16.21,9.11-36.63,18.26-53.32,18.26Zm-8.2-58.84c-5.13,13.97-6.89,35.76.43,40.4,5.91,3.75,23.31,2.23,52.88-14.41,13.64-7.67,26.76-16.73,38.46-26.26l-91.78.26Z"/>
      <path class="cls-2" d="m1276.73,366.57l-15.48-6.27c5.71-16.93,10.44-37.2,15.01-56.8.44-1.91.89-3.8,1.33-5.69-35.88,49.08-73.1,71.28-111.04,66.06-22.58-3.1-43.89-22.21-50.68-45.44-2.09-7.14-2.61-14.85-1.78-22.54l-14.37.37h-33.57c.1.36.19.72.27,1.09,3.95,16.89-4.69,43.23-42.01,61.87-28.5,14.23-69.73,6.46-90.05-16.96-8.85-10.21-13.48-24.95-13.64-43.1l-77.4,65.95-10.85-12.74,90.29-76.93c8.07-47.88,38.82-102.08,74.52-129.82,43.22-33.58,93.94-35.07,120.31-32.98l20.14,1.6-199.34,169.86c-.15,1.2-.28,2.39-.4,3.57-1.91,19.53,1.2,34.61,9.01,43.62,15.43,17.8,48.11,23.85,69.93,12.96,26.36-13.16,34.61-29.79,33.54-40.97-.44-4.63-2.42-6.6-2.94-6.75-4.12,0-5.76-.05-7.6-.09-3.58-.08-8.04-.18-35.5-.18v-16.73h95.06l18.55-.48c4.9-13.28,13.66-25.03,24.95-31.75,20.49-12.19,47.52-12.84,67.26-1.6,15.05,8.56,23.69,22.76,23.69,38.96v8.15l-102.93,2.64c-.97,6.3-.76,12.63.89,18.28,4.87,16.65,21.08,31.39,36.9,33.56,42.54,5.8,85.77-32.36,128.44-113.53,0,0,0,0,0,0l14.81,7.78c-6.67,12.68-12.01,33.8-17.45,56.89,4.54-7.61,9.23-15.19,13.95-22.44,31.01-47.7,43.32-51.75,52.01-49.01,10.42,3.28,14.57,18.18,14.08,51.11,1.3-4.14,2.52-7.95,3.7-11.49,9.3-28.06,14.37-37.7,24.24-35.99,11.13,1.95,11.16,14.72,11.21,35.87.05,23.1.12,58.01,16.65,69.36,15.16,10.41,52.87,7.63,146.34-64.77l10.25,13.23c-82.6,63.97-136.93,85.36-166.07,65.33-23.77-16.33-23.85-54.93-23.91-83.12,0-.98,0-2,0-3.02-8.1,23.06-19.79,64.19-30.45,101.76l-16.32-3.53c8.71-57.82,9.44-105.97,4.89-117.69-13.9,8.83-53.77,70.71-78.47,122.53Zm-98.12-112.22c-9.33,0-18.85,2.45-27.03,7.32-6.15,3.66-11.33,9.75-15.03,16.9l79.46-2.04c-2.76-8.66-9.56-13.77-14-16.3-6.92-3.93-15.08-5.89-23.4-5.89Zm-83.84-125.47c-24.88.95-58.09,7.31-87.2,29.94-27.08,21.05-51.7,60.36-63.23,98.24l150.44-128.18Z"/>
      <path class="cls-2" d="m646.45,377.2l-4.68-1.36c-36.6-10.62-60.2-39.94-58.74-72.95,2.01-45.31,30.32-64.85,42.4-71.15,17.21-8.98,35.9-9.97,47.61-2.54,2.76,1.75,4.51,4.71,5.36,9.05,1.64,8.36.57,27.92-13.85,48.21l-13.64-9.69c10.73-15.09,11.88-29.33,11.23-34.41-6.18-2.47-17.34-1.85-28.99,4.22-9.51,4.96-31.8,20.44-33.42,57.05-1.07,24.2,15.32,45.25,42.11,54.67l123.81-120.84c.29-.28.58-.57.88-.85l11.67,11.99-.87.85c-32.28,31.67-42.38,59.9-30.02,83.94,10.51,20.44,34.29,20.73,53.04,14.21,7.66-2.67,13.01-9.24,13.95-17.15l8.94-74.8,16.61,1.99-8.94,74.8c-1.71,14.31-11.31,26.17-25.05,30.96-31.9,11.13-60.73,2.35-73.43-22.35-5.56-10.82-9.13-25.12-5.31-42.58l-80.67,78.75Z"/>
      <path class="cls-2" d="m549.66,368.4l-30.63-52.85c-11.57,17.39-27.71,34.18-46.63,42.05-35.03,14.58-65.35,9.7-81.08-13.08-12.58-18.21-11.08-54.06,3.36-79.91,14.05-25.15,37.99-38.17,67.67-36.58l-.88,16.71c-29.31-1.5-44.56,14.39-52.18,28.03-13.07,23.4-11.26,52.02-4.2,62.24,15.73,22.77,47.82,12.58,60.89,7.14,17.16-7.14,33.1-24.81,43.64-42.88l-27.21-46.96,10.28-2.97c13.86-4,33.31-8.01,42.17,3.31,4.28,5.46,4.92,14.09,1.9,25.64-1.56,5.97-4.3,13.07-8.04,20.58l21.24,36.66,44.49-73.78,14.33,8.64-59.11,98.02Zm-41.81-105.53l10.5,18.12c4.25-11.49,3.74-17.12,3.21-18.21,0,0-1-.82-5.17-.82-2.04,0-4.81.23-8.54.91Z"/>
      <path class="cls-2" d="m832,419.29c-5.1,0-9.16-.82-11.75-1.54-8.22-2.29-14.17-6.78-15.92-12.01-2.52-7.53,3.26-26.24,18.97-40.19l-12.24-13.47,12.39-11.25,52.52,57.8-6.59,5.6c-14.25,12.11-27.69,15.06-37.37,15.06Zm-11.41-19.36c3.71,2.14,15.74,6,30.93-3.32l-16.96-18.67c-9.14,8.08-13.12,17.8-13.97,21.99Zm-.17,1.51h0Zm-.88-2.26"/>
    </g>
  </g>
</svg>